# xmcd
#
# Track frame offsets:
#	150
#	16373
#	36120
#	53337
#	72575
#	90221
#	108054
#	128274
#	145850
#	165574
#	179461
#	194499
#	210307
#	227094
#	244088
#	256028
#	277759
#	292391
#	303217
#
# Disc length: 4223 seconds
#
# Revision: 0
# Processed by: cddbd v1.5.1PL0 Copyright (c) Steve Scherf et al.
# Submitted via: dBpowerAMP V4.0
#
DISCID=f6107d13
DTITLE=Luis Miguel - Luis Miguel Lo Mejor
DYEAR=1900
DGENRE=Undefined
TTITLE0=Amarte es un Placer
TTITLE1=La Incondicional
TTITLE2=No se tu
TTITLE3=Inolvidable
TTITLE4=Fria como el Viento
TTITLE5=El dia que me quieras
TTITLE6=tengo todo excepto a ti
TTITLE7=Mas alla de todo
TTITLE8=Entregate
TTITLE9=Por debajo de la mesa
TTITLE10=La Puerta
TTITLE11=La barca
TTITLE12=Usted
TTITLE13=La Mentira
TTITLE14=La Media Vuelta
TTITLE15=Que sabes tú
TTITLE16=Todo una vida
TTITLE17=El tiempo que te quede libre
TTITLE18=La Bikina
EXTD=eduardo vallejo
EXTT0=
EXTT1=
EXTT2=
EXTT3=
EXTT4=
EXTT5=
EXTT6=
EXTT7=
EXTT8=
EXTT9=
EXTT10=
EXTT11=
EXTT12=
EXTT13=
EXTT14=
EXTT15=
EXTT16=
EXTT17=
EXTT18=
PLAYORDER=
